<svg width="64" height="64" viewBox="0 0 64 64" fill="none" xmlns="http://www.w3.org/2000/svg">
<rect x="0.5" y="0.5" width="63" height="63" rx="1.5" fill="#F2D53C" stroke="black"/>
<path d="M17.3755 22.232H25.6315C31.4555 22.232 34.3675 24.216 34.3675 28.184V37.368C34.3675 41.1227 31.4662 43 25.6635 43H17.3755V22.232ZM25.4395 40.888C29.4075 40.888 31.3915 39.6933 31.3915 37.304V28.152C31.3915 27.384 31.2315 26.7333 30.9115 26.2C30.5915 25.6667 30.1435 25.272 29.5675 25.016C28.9915 24.7813 28.3942 24.6213 27.7755 24.536C27.1568 24.4293 26.4315 24.376 25.5995 24.376H20.4795V40.888H25.4395ZM40.8543 43.32C39.1476 43.32 37.8783 43.2027 37.0463 42.968V40.888C38.3263 41.2293 39.4676 41.4 40.4703 41.4C41.3023 41.4 41.9316 41.3253 42.3583 41.176C42.7849 41.0267 43.0836 40.76 43.2543 40.376C43.4249 39.9707 43.5103 39.3627 43.5103 38.552V22.232H46.6143V38.424C46.6143 39.7467 46.4223 40.76 46.0383 41.464C45.6543 42.1467 45.0569 42.6267 44.2463 42.904C43.4356 43.1813 42.3049 43.32 40.8543 43.32Z" fill="black"/>
</svg>
